{
  "extensionsUsed": [
    "KHR_materials_transmission",
    "KHR_materials_clearcoat",
    "KHR_materials_ior",
    "KHR_materials_specular",
    "KHR_materials_emissive_strength",
    "KHR_texture_transform"
  ],
  "accessors": [
    {
      "bufferView": 0,
      "componentType": 5126,
      "count": 258,
      "type": "VEC3",
      "max": [
        1.0,
        2.0,
        1.0
      ],
      "min": [
        -1.0,
        0.0,
        -1.0
      ]
    },
    {
      "bufferView": 1,
      "componentType": 5125,
      "count": 768,
      "type": "SCALAR",
      "max": [
        257.0
      ],
      "min": [
        0.0
      ]
    },
    {
      "bufferView": 2,
      "componentType": 5126,
      "count": 258,
      "type": "VEC3",
      "max": [
        0.9805807,
        0.19611615,
        0.9805807
      ],
      "min": [
        -0.9805807,
        0.19611613,
        -0.9805807
      ]
    },
    {
      "bufferView": 3,
      "componentType": 5126,
      "count": 258,
      "type": "VEC2",
      "max": [
        0.64152366,
        -0.0
      ],
      "min": [
        0.31834206,
        -0.99853516
      ]
    },
    {
      "bufferView": 4,
      "componentType": 5126,
      "count": 128,
      "type": "VEC3",
      "max": [
        1.0,
        0.0,
        1.0
      ],
      "min": [
        -1.0,
        0.0,
        -1.0
      ]
    },
    {
      "bufferView": 5,
      "componentType": 5125,
      "count": 378,
      "type": "SCALAR",
      "max": [
        127.0
      ],
      "min": [
        0.0
      ]
    },
    {
      "bufferView": 6,
      "componentType": 5126,
      "count": 128,
      "type": "VEC3",
      "max": [
        0.0,
        -1.0,
        0.0
      ],
      "min": [
        0.0,
        -1.0,
        0.0
      ]
    },
    {
      "bufferView": 7,
      "componentType": 5126,
      "count": 128,
      "type": "VEC2",
      "max": [
        0.31687722,
        -0.375
      ],
      "min": [
        0.0,
        -0.69334203
      ]
    },
    {
      "bufferView": 8,
      "componentType": 5126,
      "count": 128,
      "type": "VEC3",
      "max": [
        0.6,
        2.0,
        0.6
      ],
      "min": [
        -0.6,
        2.0,
        -0.6
      ]
    },
    {
      "bufferView": 9,
      "componentType": 5125,
      "count": 378,
      "type": "SCALAR",
      "max": [
        127.0
      ],
      "min": [
        0.0
      ]
    },
    {
      "bufferView": 10,
      "componentType": 5126,
      "count": 128,
      "type": "VEC3",
      "max": [
        2.220446E-16,
        1.0,
        0.0
      ],
      "min": [
        -2.220446E-16,
        1.0,
        0.0
      ]
    },
    {
      "bufferView": 11,
      "componentType": 5126,
      "count": 128,
      "type": "VEC2",
      "max": [
        0.19100523,
        -0.0
      ],
      "min": [
        0.0,
        -0.19100523
      ]
    }
  ],
  "asset": {
    "version": "2.0"
  },
  "buffers": [
    {
      "uri": "data:application/octet-stream;base64,",
      "byteLength": 3096
    },
    {
      "uri": "data:application/octet-stream;base64,",
      "byteLength": 3072
    },
    {
      "uri": "data:application/octet-stream;base64,",
      "byteLength": 3096
    },
    {
      "uri": "data:application/octet-stream;base64,",
      "byteLength": 2064
    },
    {
      "uri": "data:application/octet-stream;base64,",
      "byteLength": 1536
    },
    {
      "uri": "data:application/octet-stream;base64,",
      "byteLength": 1512
    },
    {
      "uri": "data:application/octet-stream;base64,",
      "byteLength": 1536
    },
    {
      "uri": "data:application/octet-stream;base64,",
      "byteLength": 1024
    },
    {
      "uri": "data:application/octet-stream;base64,",
      "byteLength": 1536
    },
    {
      "uri": "data:application/octet-stream;base64,",
      "byteLength": 1512
    },
    {
      "uri": "data:application/octet-stream;base64,",
      "byteLength": 1536
    },
    {
      "uri": "data:application/octet-stream;base64,",
      "byteLength": 1024
    }
  ],
  "bufferViews": [
    {
      "buffer": 0,
      "byteLength": 3096,
      "target": 34962
    },
    {
      "buffer": 1,
      "byteLength": 3072,
      "target": 34963
    },
    {
      "buffer": 2,
      "byteLength": 3096,
      "target": 34962
    },
    {
      "buffer": 3,
      "byteLength": 2064,
      "target": 34962
    },
    {
      "buffer": 4,
      "byteLength": 1536,
      "target": 34962
    },
    {
      "buffer": 5,
      "byteLength": 1512,
      "target": 34963
    },
    {
      "buffer": 6,
      "byteLength": 1536,
      "target": 34962
    },
    {
      "buffer": 7,
      "byteLength": 1024,
      "target": 34962
    },
    {
      "buffer": 8,
      "byteLength": 1536,
      "target": 34962
    },
    {
      "buffer": 9,
      "byteLength": 1512,
      "target": 34963
    },
    {
      "buffer": 10,
      "byteLength": 1536,
      "target": 34962
    },
    {
      "buffer": 11,
      "byteLength": 1024,
      "target": 34962
    }
  ],
  "materials": [
    {
      "extensions": {
        "KHR_materials_transmission": {},
        "KHR_materials_clearcoat": {},
        "KHR_materials_ior": {
          "ior": 1.0
        },
        "KHR_materials_specular": {
          "specularFactor": 0.5,
          "specularColorFactor": [
            1.0,
            1.0,
            1.0
          ]
        }
      },
      "pbrMetallicRoughness": {
        "baseColorFactor": [
          0.95736957,
          0.95736957,
          0.95736957,
          1.0
        ],
        "metallicFactor": 0.0
      }
    }
  ],
  "meshes": [
    {
      "primitives": [
        {
          "attributes": {
            "POSITION": 0,
            "NORMAL": 2,
            "TEXCOORD_0": 3
          },
          "indices": 1,
          "material": 0
        },
        {
          "attributes": {
            "POSITION": 4,
            "NORMAL": 6,
            "TEXCOORD_0": 7
          },
          "indices": 5,
          "material": 0
        },
        {
          "attributes": {
            "POSITION": 8,
            "NORMAL": 10,
            "TEXCOORD_0": 11
          },
          "indices": 9,
          "material": 0
        }
      ]
    }
  ],
  "nodes": [
    {
      "mesh": 0
    }
  ],
  "samplers": [
    {
      "magFilter": 9729,
      "minFilter": 9729
    }
  ],
  "scene": 0,
  "scenes": [
    {
      "nodes": [
        0
      ],
      "extensions": {}
    }
  ],
  "extensions": {}
}